<svg width="16" height="17" viewBox="0 0 16 17" fill="none" xmlns="http://www.w3.org/2000/svg">
<path fill-rule="evenodd" clip-rule="evenodd" d="M8.00067 0.501465C5.828 0.501465 5.55533 0.510965 4.702 0.549798C3.85033 0.588798 3.269 0.723632 2.76033 0.921465C2.23417 1.1258 1.78783 1.39913 1.34317 1.84396C0.898167 2.28863 0.624833 2.73496 0.419833 3.26096C0.2215 3.7698 0.0865 4.3513 0.0481667 5.20263C0.01 6.05597 0 6.3288 0 8.50146C0 10.6741 0.00966667 10.946 0.0483333 11.7993C0.0875 12.651 0.222333 13.2323 0.42 13.741C0.6245 14.2671 0.897833 14.7135 1.34267 15.1581C1.78717 15.6031 2.2335 15.8771 2.75933 16.0815C3.26833 16.2793 3.84983 16.4141 4.70133 16.4531C5.55467 16.492 5.82717 16.5015 7.99967 16.5015C10.1725 16.5015 10.4443 16.492 11.2977 16.4531C12.1493 16.4141 12.7313 16.2793 13.2403 16.0815C13.7663 15.8771 14.212 15.6031 14.6565 15.1581C15.1015 14.7135 15.3748 14.2671 15.5798 13.7411C15.7765 13.2323 15.9115 12.6508 15.9515 11.7995C15.9898 10.9461 15.9998 10.6741 15.9998 8.50146C15.9998 6.3288 15.9898 6.05613 15.9515 5.2028C15.9115 4.35113 15.7765 3.7698 15.5798 3.26113C15.3748 2.73497 15.1015 2.28863 14.6565 1.84396C14.2115 1.39896 13.7665 1.12563 13.2398 0.921465C12.7298 0.723632 12.1482 0.588798 11.2965 0.549798C10.4432 0.510965 10.1715 0.501465 7.99817 0.501465H8.00067ZM7.28318 1.94313C7.49618 1.9428 7.73385 1.94313 8.00085 1.94313C10.1368 1.94313 10.39 1.9508 11.2335 1.98913C12.0135 2.0248 12.4368 2.15513 12.7188 2.26463C13.0922 2.40963 13.3583 2.58296 13.6382 2.86296C13.9182 3.14296 14.0915 3.40963 14.2368 3.78296C14.3463 4.06463 14.4768 4.48796 14.5123 5.26796C14.5507 6.1113 14.559 6.36463 14.559 8.49963C14.559 10.6346 14.5507 10.888 14.5123 11.7313C14.4767 12.5113 14.3463 12.9346 14.2368 13.2163C14.0918 13.5896 13.9182 13.8555 13.6382 14.1353C13.3582 14.4153 13.0923 14.5886 12.7188 14.7336C12.4372 14.8436 12.0135 14.9736 11.2335 15.0093C10.3902 15.0476 10.1368 15.056 8.00085 15.056C5.86468 15.056 5.61151 15.0476 4.76818 15.0093C3.98818 14.9733 3.56485 14.843 3.28268 14.7335C2.90935 14.5885 2.64268 14.4151 2.36268 14.1351C2.08268 13.8551 1.90935 13.5891 1.76401 13.2156C1.65451 12.934 1.52401 12.5106 1.48851 11.7306C1.45018 10.8873 1.44251 10.634 1.44251 8.49763C1.44251 6.3613 1.45018 6.1093 1.48851 5.26596C1.52418 4.48596 1.65451 4.06263 1.76401 3.78063C1.90901 3.4073 2.08268 3.14063 2.36268 2.86063C2.64268 2.58063 2.90935 2.4073 3.28268 2.26196C3.56468 2.15196 3.98818 2.02196 4.76818 1.98613C5.50618 1.9528 5.79218 1.9428 7.28318 1.94113V1.94313ZM12.2712 3.27147C11.7412 3.27147 11.3112 3.70097 11.3112 4.23114C11.3112 4.76114 11.7412 5.19113 12.2712 5.19113C12.8012 5.19113 13.2312 4.76114 13.2312 4.23114C13.2312 3.70114 12.8012 3.27114 12.2712 3.27114V3.27147ZM8.00077 4.39312C5.73194 4.39312 3.89244 6.23262 3.89244 8.50145C3.89244 10.7703 5.73194 12.6089 8.00077 12.6089C10.2696 12.6089 12.1084 10.7703 12.1084 8.50145C12.1084 6.23262 10.2694 4.39312 8.0006 4.39312H8.00077ZM8.0007 5.83478C9.47337 5.83478 10.6674 7.02862 10.6674 8.50145C10.6674 9.97412 9.47337 11.1681 8.0007 11.1681C6.52787 11.1681 5.33404 9.97412 5.33404 8.50145C5.33404 7.02862 6.52787 5.83478 8.0007 5.83478Z" fill="white"/>
</svg>
