<svg width="20" height="17" viewBox="0 0 20 17" fill="none" xmlns="http://www.w3.org/2000/svg">
<path fill-rule="evenodd" clip-rule="evenodd" d="M9.93445 4.75772L9.97642 5.44976L9.27694 5.36502C6.73083 5.04018 4.50649 3.93856 2.6179 2.0884L1.69458 1.17038L1.45676 1.8483C0.953135 3.3595 1.2749 4.95544 2.32411 6.02882C2.8837 6.622 2.75779 6.70674 1.79251 6.35366C1.45676 6.24067 1.16298 6.15593 1.135 6.1983C1.03707 6.29716 1.37282 7.58239 1.63862 8.09083C2.00235 8.797 2.7438 9.48904 3.5552 9.89862L4.24069 10.2235L3.42929 10.2376C2.64587 10.2376 2.6179 10.2517 2.70183 10.5483C2.98163 11.4663 4.0868 12.4408 5.31789 12.8645L6.18524 13.1611L5.4298 13.6131C4.31064 14.2627 2.99561 14.63 1.68059 14.6582C1.05106 14.6723 0.533447 14.7288 0.533447 14.7712C0.533447 14.9124 2.24018 15.7033 3.23344 16.014C6.21322 16.9321 9.75259 16.5366 12.4106 14.9689C14.2992 13.8532 16.1878 11.6358 17.0691 9.48904C17.5448 8.34505 18.0204 6.25479 18.0204 5.25203C18.0204 4.60236 18.0624 4.51762 18.8458 3.74083C19.3075 3.28888 19.7411 2.79457 19.8251 2.65333C19.965 2.38499 19.951 2.38499 19.2375 2.62509C18.0484 3.04879 17.8805 2.99229 18.4681 2.35674C18.9018 1.90479 19.4194 1.08564 19.4194 0.845542C19.4194 0.803172 19.2095 0.873789 18.9717 1.0009C18.7199 1.14213 18.1603 1.35398 17.7406 1.48109L16.9852 1.72119L16.2997 1.25512C15.922 1.0009 15.3904 0.718432 15.1106 0.633691C14.3971 0.435964 13.3059 0.464211 12.6624 0.690185C10.9137 1.32574 9.80854 2.96405 9.93445 4.75772Z" fill="white"/>
</svg>
