<svg width="23" height="17" viewBox="0 0 23 17" fill="none" xmlns="http://www.w3.org/2000/svg">
<path fill-rule="evenodd" clip-rule="evenodd" d="M21.7957 2.99992C21.5397 2.01643 20.7853 1.24198 19.8275 0.979142C18.0916 0.501465 11.1304 0.501465 11.1304 0.501465C11.1304 0.501465 4.16923 0.501465 2.43327 0.979142C1.47542 1.24198 0.721075 2.01643 0.465075 2.99992C0 4.78237 0 8.50146 0 8.50146C0 8.50146 0 12.2204 0.465075 14.003C0.721075 14.9865 1.47542 15.7609 2.43327 16.0239C4.16923 16.5015 11.1304 16.5015 11.1304 16.5015C11.1304 16.5015 18.0916 16.5015 19.8275 16.0239C20.7853 15.7609 21.5397 14.9865 21.7957 14.003C22.2609 12.2204 22.2609 8.50146 22.2609 8.50146C22.2609 8.50146 22.2609 4.78237 21.7957 2.99992Z" fill="white"/>
<path fill-rule="evenodd" clip-rule="evenodd" d="M9.0437 12.3276V5.37109L14.6089 8.84949L9.0437 12.3276Z" fill="#533E2D"/>
</svg>
