<svg width="60" height="60" viewBox="0 0 60 60" fill="none" xmlns="http://www.w3.org/2000/svg">
<circle cx="30" cy="30" r="30" fill="#0F9D58" fill-opacity="0.2"/>
<path d="M28.6854 30.5336L26.6611 28.5093L25.5591 29.6113L28.6854 32.7376L34.938 26.485L33.8359 25.383L28.6854 30.5336Z" fill="#005DA9"/>
<path d="M30.2485 41.0144L25.4215 38.4407C24.0454 37.7086 22.8947 36.6156 22.0927 35.279C21.2908 33.9424 20.868 32.4127 20.8696 30.854V20.6935C20.87 20.2791 21.0349 19.8817 21.3279 19.5887C21.621 19.2956 22.0183 19.1308 22.4328 19.1304H38.0642C38.4787 19.1308 38.876 19.2956 39.1691 19.5887C39.4621 19.8817 39.627 20.2791 39.6274 20.6935V30.854C39.629 32.4127 39.2062 33.9424 38.4043 35.279C37.6023 36.6156 36.4516 37.7086 35.0755 38.4407L30.2485 41.0144ZM22.4328 20.6935V30.854C22.4315 32.1293 22.7775 33.381 23.4338 34.4746C24.09 35.5681 25.0317 36.4623 26.1578 37.0612L30.2485 39.2426L34.3393 37.062C35.4654 36.4631 36.4072 35.5687 37.0634 34.475C37.7197 33.3813 38.0657 32.1295 38.0642 30.854V20.6935H22.4328Z" fill="#005DA9"/>
</svg>
