<svg width="60" height="60" viewBox="0 0 60 60" fill="none" xmlns="http://www.w3.org/2000/svg">
<circle cx="30" cy="30" r="30" fill="#FF9100" fill-opacity="0.2"/>
<path d="M33.7325 25.3263V23.7087C33.7278 22.7235 33.3332 21.7802 32.635 21.0852C31.9367 20.3902 30.9916 20 30.0064 20C29.0212 20 28.076 20.3902 27.3778 21.0852C26.6795 21.7802 26.2849 22.7235 26.2803 23.7087V25.3263C26.2849 26.3115 26.6795 27.2548 27.3778 27.9498C28.076 28.6448 29.0212 29.035 30.0064 29.035C30.9916 29.035 31.9367 28.6448 32.635 27.9498C33.3332 27.2548 33.7278 26.3115 33.7325 25.3263ZM27.262 25.3263V23.7087C27.266 22.9834 27.5569 22.2892 28.0711 21.7778C28.5853 21.2664 29.2811 20.9793 30.0064 20.9793C30.7316 20.9793 31.4274 21.2664 31.9416 21.7778C32.4559 22.2892 32.7467 22.9834 32.7507 23.7087V25.3263C32.7467 26.0515 32.4559 26.7457 31.9416 27.2572C31.4274 27.7686 30.7316 28.0557 30.0064 28.0557C29.2811 28.0557 28.5853 27.7686 28.0711 27.2572C27.5569 26.7457 27.266 26.0515 27.262 25.3263Z" fill="#F7931A"/>
<path d="M24.0003 39.1627H36.0124C36.1426 39.1627 36.2674 39.111 36.3595 39.0189C36.4515 38.9268 36.5032 38.802 36.5032 38.6718V37.545H44.7264C44.8566 37.545 44.9814 37.4933 45.0735 37.4013C45.1655 37.3092 45.2173 37.1844 45.2173 37.0542V33.868C45.2167 32.9331 44.8603 32.0335 44.2204 31.3518C43.5806 30.6702 42.7052 30.2577 41.7722 30.1982C41.5104 30.1789 41.3758 30.3447 41.2667 30.4778C41.0495 30.7431 40.7746 30.9554 40.463 31.0984C40.1514 31.2414 39.8112 31.3114 39.4684 31.3031C39.1256 31.2947 38.7893 31.2082 38.485 31.0501C38.1807 30.8921 37.9165 30.6666 37.7125 30.391C37.6657 30.3276 37.6042 30.2763 37.5334 30.2417C37.4625 30.207 37.3844 30.19 37.3055 30.1919C36.6678 30.2063 36.0451 30.3879 35.4998 30.7187C35.1398 30.3001 34.6994 29.9579 34.2047 29.7126C33.71 29.4672 33.1711 29.3236 32.62 29.2903C32.3663 29.28 32.238 29.434 32.1138 29.5849C31.859 29.8963 31.5364 30.1454 31.1707 30.3133C30.805 30.4811 30.4058 30.5633 30.0036 30.5534C29.6013 30.5436 29.2066 30.4421 28.8495 30.2566C28.4925 30.0711 28.1825 29.8065 27.9431 29.483C27.8964 29.4195 27.8349 29.3682 27.764 29.3336C27.6932 29.299 27.615 29.282 27.5361 29.284C26.4596 29.3089 25.4359 29.7555 24.6853 30.5276C24.6233 30.591 24.5645 30.6567 24.5071 30.7234C24.0002 30.4148 23.4258 30.2345 22.8335 30.198C22.5725 30.1788 22.437 30.3445 22.3279 30.4776C22.1108 30.743 21.8359 30.9552 21.5243 31.0983C21.2126 31.2413 20.8724 31.3113 20.5297 31.3029C20.1869 31.2945 19.8505 31.208 19.5463 31.0499C19.242 30.8919 18.9778 30.6665 18.7738 30.3908C18.7269 30.3275 18.6654 30.2763 18.5946 30.2417C18.5238 30.207 18.4456 30.1899 18.3668 30.1918C17.408 30.2162 16.4966 30.6142 15.827 31.3009C15.1574 31.9877 14.7826 32.9088 14.7825 33.868V37.0542C14.7825 37.1844 14.8342 37.3092 14.9262 37.4013C15.0183 37.4933 15.1432 37.545 15.2734 37.545H23.5094V38.6718C23.5094 38.802 23.5611 38.9268 23.6532 39.0189C23.7452 39.111 23.8701 39.1627 24.0003 39.1627ZM37.0959 31.1892C37.3986 31.5328 37.7707 31.8081 38.1876 31.9971C38.6046 32.1861 39.0569 32.2845 39.5147 32.2857C39.9726 32.2869 40.4254 32.1909 40.8434 32.0041C41.2613 31.8173 41.6349 31.5438 41.9393 31.2019C42.5776 31.2982 43.1603 31.6202 43.5816 32.1093C44.0029 32.5985 44.2349 33.2224 44.2355 33.868V36.5633H36.5032V33.4142C36.5038 32.7605 36.3482 32.1161 36.0496 31.5346C36.3704 31.3475 36.7268 31.2299 37.0959 31.1892ZM27.3245 30.2807C27.664 30.6736 28.0838 30.9891 28.5557 31.2057C29.0275 31.4223 29.5404 31.535 30.0596 31.5363C30.5789 31.5375 31.0923 31.4272 31.5652 31.2128C32.0381 30.9985 32.4594 30.685 32.8007 30.2937C33.5544 30.398 34.2451 30.7713 34.7452 31.3448C35.2453 31.9183 35.5211 32.6533 35.5218 33.4142V38.1809H24.4912V33.4142C24.496 32.635 24.7876 31.8849 25.3102 31.307C25.8327 30.7291 26.5498 30.3637 27.3245 30.2807ZM15.7642 36.5633V33.868C15.7684 33.2066 16.0139 32.5695 16.4546 32.0763C16.8953 31.5831 17.5009 31.2678 18.1576 31.1896C18.4603 31.533 18.8323 31.8082 19.2493 31.9972C19.6662 32.1861 20.1184 32.2844 20.5762 32.2856C21.0339 32.2867 21.4867 32.1907 21.9045 32.0039C22.3224 31.8171 22.6959 31.5438 23.0003 31.2019C23.3383 31.2525 23.6635 31.3672 23.9583 31.54C23.6624 32.1203 23.5085 32.7627 23.5094 33.4142V36.5633H15.7642Z" fill="#F7931A"/>
<path d="M42.792 26.7886V25.3727C42.792 24.4915 42.4419 23.6463 41.8188 23.0232C41.1957 22.4001 40.3506 22.05 39.4694 22.05C38.5881 22.05 37.743 22.4001 37.1199 23.0232C36.4968 23.6463 36.1467 24.4915 36.1467 25.3727V26.7886C36.1467 27.6698 36.4968 28.515 37.1199 29.1381C37.743 29.7612 38.5881 30.1113 39.4694 30.1113C40.3506 30.1113 41.1957 29.7612 41.8188 29.1381C42.4419 28.515 42.792 27.6698 42.792 26.7886ZM37.1285 26.7886V25.3727C37.1285 24.7518 37.3751 24.1564 37.8141 23.7174C38.2531 23.2784 38.8485 23.0318 39.4694 23.0318C40.0902 23.0318 40.6856 23.2784 41.1246 23.7174C41.5636 24.1564 41.8102 24.7518 41.8102 25.3727V26.7886C41.8102 27.4095 41.5636 28.0049 41.1246 28.4439C40.6856 28.8829 40.0902 29.1295 39.4694 29.1295C38.8485 29.1295 38.2531 28.8829 37.8141 28.4439C37.3751 28.0049 37.1285 27.4095 37.1285 26.7886Z" fill="#F7931A"/>
<path d="M23.8533 26.7886V25.3727C23.8533 24.9363 23.7673 24.5043 23.6003 24.1012C23.4334 23.698 23.1886 23.3318 22.8801 23.0232C22.5716 22.7147 22.2053 22.4699 21.8021 22.303C21.399 22.136 20.967 22.05 20.5306 22.05C20.0943 22.05 19.6622 22.136 19.2591 22.303C18.856 22.4699 18.4897 22.7147 18.1812 23.0232C17.8726 23.3318 17.6279 23.698 17.4609 24.1012C17.2939 24.5043 17.208 24.9363 17.208 25.3727V26.7886C17.208 27.225 17.2939 27.657 17.4609 28.0601C17.6279 28.4633 17.8726 28.8295 18.1812 29.1381C18.4897 29.4466 18.856 29.6914 19.2591 29.8583C19.6622 30.0253 20.0943 30.1113 20.5306 30.1113C20.967 30.1113 21.399 30.0253 21.8021 29.8583C22.2053 29.6914 22.5716 29.4466 22.8801 29.1381C23.1886 28.8295 23.4334 28.4633 23.6003 28.0601C23.7673 27.657 23.8533 27.225 23.8533 26.7886ZM18.1898 26.7886V25.3727C18.1898 24.7518 18.4364 24.1564 18.8754 23.7174C19.3144 23.2784 19.9098 23.0318 20.5306 23.0318C21.1515 23.0318 21.7469 23.2784 22.1859 23.7174C22.6249 24.1564 22.8715 24.7518 22.8715 25.3727V26.7886C22.8715 27.096 22.8109 27.4004 22.6933 27.6844C22.5757 27.9684 22.4032 28.2265 22.1859 28.4439C21.9685 28.6612 21.7104 28.8337 21.4264 28.9513C21.1424 29.0689 20.838 29.1295 20.5306 29.1295C20.2232 29.1295 19.9188 29.0689 19.6348 28.9513C19.3508 28.8337 19.0928 28.6612 18.8754 28.4439C18.658 28.2265 18.4856 27.9684 18.368 27.6844C18.2503 27.4004 18.1898 27.096 18.1898 26.7886Z" fill="#F7931A"/>
</svg>
