<svg width="60" height="60" viewBox="0 0 60 60" fill="none" xmlns="http://www.w3.org/2000/svg">
<circle cx="30" cy="30" r="30" fill="#0F9D58" fill-opacity="0.2"/>
<path d="M48.75 11.25L10.5 49.5" stroke="#0F9D58" stroke-width="4" stroke-linecap="round" stroke-linejoin="round"/>
<path d="M10.5 11.25L48.75 49.5" stroke="#0F9D58" stroke-width="4" stroke-linecap="round" stroke-linejoin="round"/>
<path d="M41.4783 35.4792L41.2223 35.3289C41.2028 35.3176 39.2474 34.1573 38.7614 32.7494L38.653 32.4376L38.4527 32.6993C38.4464 32.7076 38.1686 33.0511 37.3911 33.4542C36.8155 30.1778 34.8574 26.2663 32.2842 24.5986C33.0198 24.658 33.7578 24.597 34.47 24.338C34.8989 24.1822 34.7138 23.4833 34.281 23.6414C33.6972 23.8539 33.1122 23.9118 32.5283 23.8821C33.9617 22.5685 35.0871 20.5552 35.0871 19.0831C35.0871 18.7294 35.0871 18.0708 34.5627 18.0708C34.3522 18.0708 34.182 18.2023 33.9468 18.3839C33.586 18.6621 33.0413 19.0831 32.2411 19.0831C31.9363 19.0831 31.3783 18.7615 30.9299 18.5032C30.3879 18.1913 30.0416 18 29.7505 18C29.2684 18 28.5597 18.3897 27.9344 18.7337C27.6801 18.8734 27.3322 19.0651 27.2602 19.0835C26.354 19.0835 25.8277 18.6656 25.4786 18.389C25.2751 18.227 25.1276 18.1096 24.9308 18.1096C24.415 18.1096 24.415 18.7282 24.415 19.4447C24.415 20.8276 25.4684 22.653 26.8478 23.8797C25.9787 23.942 25.1217 24.2045 24.5195 24.788C24.1869 25.1096 24.6909 25.6199 25.0223 25.299C25.5228 24.8138 26.179 24.606 26.881 24.5657C26.901 24.6373 26.9253 24.7077 26.955 24.777C24.014 26.8904 21.9248 31.9089 21.9248 35.2968C21.9248 35.631 21.9506 35.9335 21.9905 36.2183C21.2322 35.8814 20.9555 35.586 20.95 35.5793L20.7481 35.3465L20.6487 35.64C20.2093 36.9329 18.299 38.0543 18.2798 38.0657L18 38.2281L18.2845 38.3819C18.3843 38.4359 18.4833 38.4832 18.583 38.5345L18.403 38.6593L18.4981 39.8489L25.9537 41.4783L28.7804 39.67C29.0657 39.6716 29.3545 39.6724 29.6483 39.6724L32.9525 41.4783L40.4221 39.1304V37.8747L40.2245 37.7562C40.3231 37.6936 40.4217 37.6298 40.52 37.564L40.7817 37.3891L40.7242 37.361L41.0572 37.2698L41.1136 35.9644L40.921 35.8278C41.0236 35.7664 41.1257 35.7038 41.2282 35.6388L41.4783 35.4792ZM25.1268 19.4447C25.1268 19.271 25.1292 19.1356 25.1327 19.0303C25.1926 19.0773 25.2622 19.1285 25.3366 19.1813C25.5647 19.7276 25.9963 20.5141 26.728 21.0095C27.6171 21.6121 27.4989 20.9195 27.9732 20.2872C28.4474 19.6552 28.7683 19.3242 29.5627 20.9497C29.909 21.6583 30.4861 19.6779 31.0347 19.3887C31.1799 19.4678 31.3247 19.5413 31.4667 19.604C32.4505 21.2036 32.9063 20.7047 33.7801 19.375C34.0204 19.2342 34.2176 19.0831 34.3745 18.9622C34.3753 18.9986 34.3761 19.0389 34.3761 19.0839C34.3761 20.34 33.3497 22.1416 32.0928 23.3167C32.0335 23.1658 31.9485 23.0264 31.8416 22.9046C31.3341 22.3298 30.5409 22.9672 30.1649 23.3855C29.4977 23.1711 28.4107 22.5806 27.7024 22.9187C27.526 23.0005 27.364 23.1103 27.2227 23.2439C26.0644 22.1881 25.1268 20.664 25.1268 19.4447ZM31.4675 23.7389C31.2921 23.7017 31.1176 23.6599 30.9443 23.6137C31.1627 23.4254 31.363 23.3597 31.4472 23.6395C31.4562 23.67 31.4617 23.7048 31.4675 23.7389ZM28.4936 23.9819C28.3641 23.9572 28.231 23.9349 28.0941 23.9173C27.9902 23.8522 27.8886 23.7837 27.7893 23.7119C28.1469 23.472 28.7636 23.5996 29.3529 23.7995C29.0622 23.8289 28.7753 23.8923 28.4936 23.9819ZM28.6713 25.0149C28.4521 25.0697 28.2134 25.0478 28.0072 24.9656C28.091 24.9214 28.1755 24.883 28.26 24.8443C28.397 24.9104 28.5339 24.9656 28.6713 25.0149ZM21.4333 39.2787C20.5 39.0084 19.5944 38.6504 18.7286 38.2093C19.2596 37.8603 20.4163 37.0162 20.8867 36.002C21.2091 36.2551 21.9533 36.7169 23.4027 37.0714C23.3781 37.1113 23.348 37.154 23.319 37.1958C22.0817 36.8718 21.3781 36.4621 21.3668 36.4551L21.1962 36.3533L21.1144 36.5361C21.0068 36.7756 20.7544 36.8116 20.6139 36.8116C20.5748 36.8116 20.5486 36.8088 20.545 36.8084L20.4053 36.7881L20.3545 36.9219C20.2504 37.195 19.8231 37.5519 19.6666 37.6666L19.4052 37.8583L19.7041 37.9808C19.8153 38.0262 19.8454 38.068 19.847 38.079C19.8509 38.106 19.8035 38.1772 19.753 38.2183L19.5253 38.4018L19.7902 38.5243C20.333 38.7747 20.9477 38.9821 21.5624 39.1531C21.5135 39.2013 21.4713 39.2423 21.4333 39.2787ZM24.5888 37.8207C25.1358 37.8974 25.742 37.946 26.404 37.946H26.4044C26.5422 37.946 26.6819 37.9436 26.8243 37.9393C26.8338 37.9688 26.8474 37.9969 26.8646 38.0227C26.8994 38.0755 26.9464 38.1193 27.0059 38.1533L26.0073 39.0068C25.9882 39.006 25.9692 39.0056 25.9501 39.0056C25.5052 39.0056 25.1734 39.1692 25.0141 39.4603C24.4107 39.3833 23.8101 39.2858 23.2133 39.168C23.6931 38.7411 24.1521 38.2915 24.5888 37.8207ZM20.1479 38.2891C20.187 38.2152 20.2124 38.1256 20.1987 38.0277C20.1857 37.9395 20.1434 37.8582 20.0786 37.7969C20.2543 37.6462 20.4965 37.4138 20.6296 37.1731C20.932 37.1688 21.1817 37.0542 21.339 36.8515C21.6039 36.99 22.2007 37.2698 23.0823 37.5124C22.7219 37.9643 22.2363 38.477 21.8587 38.8581C21.2701 38.7023 20.6773 38.5145 20.1479 38.2891ZM25.7243 39.9361L25.6441 39.9365C25.3072 39.9365 24.1908 39.9091 22.716 39.602C22.7677 39.5581 22.8213 39.5131 22.871 39.4701C24.0676 39.7201 25.0325 39.8273 25.1049 39.8356L25.2481 39.8508L25.2923 39.7119C25.389 39.4122 25.7455 39.368 25.9497 39.368C26.0057 39.368 26.0429 39.3715 26.0472 39.3719L26.1231 39.3801L27.8577 37.8978L27.394 37.8826C27.2391 37.8771 27.1737 37.8423 27.1577 37.8184L27.2559 37.5613L26.9843 37.5727C26.7863 37.5813 26.593 37.5856 26.404 37.5856H26.4037C25.8574 37.5856 25.3507 37.5496 24.8823 37.4928L24.991 37.3645C25.9364 37.4909 27.0685 37.5687 28.4353 37.559C28.109 38.0168 27.295 38.99 25.7243 39.9361ZM29.6468 38.2359V38.95C29.4241 38.95 29.2073 38.9493 28.9953 38.9477L28.9315 38.144L28.4017 38.187C28.7585 37.7652 28.9107 37.4838 28.9244 37.4584L29.068 37.1868L28.7648 37.1923C25.8621 37.2455 23.969 36.8996 22.7739 36.5153C22.6867 36.1624 22.6362 35.7633 22.6362 35.2972C22.6362 32.1187 24.6674 27.3142 27.3643 25.3671C27.8421 25.8292 28.5668 26.0315 29.2555 25.5819C29.4065 25.4833 29.538 25.3542 29.6613 25.2168C29.6906 25.2176 29.7207 25.2243 29.7505 25.2243C29.8491 25.2243 29.9493 25.216 30.049 25.2035C30.1754 25.254 30.2991 25.3049 30.4137 25.3553C30.9627 25.5972 31.4315 25.4469 31.7516 25.1135C34.2219 26.6083 36.2011 30.5624 36.722 33.7586C35.5927 34.2102 33.8013 34.6508 31.052 34.7283C31.5943 34.4183 32.0013 33.8971 31.8549 33.2123C31.7011 32.4884 31.0962 32.285 30.4697 32.2517C30.4681 31.9117 30.4681 31.5724 30.4705 31.2323C30.6626 31.3173 30.8469 31.4151 31.0144 31.5196C31.3102 31.7054 31.5779 31.2237 31.284 31.0379C31.0292 30.8777 30.7572 30.7466 30.4732 30.647C30.4771 30.2533 30.4791 29.8604 30.4791 29.4676C30.4795 29.1076 29.9446 29.1076 29.9446 29.4676C29.9446 29.8131 29.9422 30.1582 29.9391 30.503C29.6544 30.4533 29.3637 30.4485 29.0774 30.4885C29.0309 30.2295 28.9745 29.9723 28.9084 29.7176C28.82 29.3709 28.3034 29.5177 28.393 29.8655C28.4588 30.1156 28.5124 30.3644 28.5566 30.6168C28.5339 30.6254 28.5093 30.6297 28.487 30.6399C27.7623 30.9267 27.3201 31.6581 27.8503 32.3401C28.0972 32.6579 28.42 32.7862 28.7734 32.8289C28.7926 33.2996 28.8047 33.7707 28.8184 34.2411C28.5817 34.0873 28.366 33.8901 28.1708 33.6815C27.929 33.4264 27.5513 33.8204 27.7928 34.0752C28.1211 34.4246 28.4658 34.6887 28.8395 34.8578C28.8563 35.2597 28.8802 35.6627 28.9193 36.0626C28.9538 36.4175 29.4891 36.4195 29.4543 36.0626C29.4213 35.7167 29.3969 35.37 29.3811 35.0229C29.5846 35.0581 29.7982 35.0671 30.0252 35.0456C30.0506 35.4158 30.0803 35.786 30.1226 36.1561C30.1469 36.3682 30.3496 36.4516 30.499 36.4085L30.4658 37.177C30.2302 37.1982 29.99 37.2177 29.7395 37.2342L29.4413 37.2537L29.6002 37.5104C29.6163 37.5363 29.7967 37.8215 30.1993 38.2367H29.6468V38.2359ZM39.3856 35.6603C38.8937 35.8916 38.2715 36.1037 37.6376 36.2888C37.2479 35.8861 36.7493 35.3489 36.3772 34.8723C37.2064 34.621 37.6705 34.362 37.8798 34.2223C38.0453 34.3683 38.2645 34.4442 38.5239 34.4438C38.61 34.4438 38.6863 34.4356 38.745 34.4262C38.9328 34.6696 39.2357 34.9505 39.4251 35.1184C39.3355 35.2103 39.292 35.3121 39.2956 35.422C39.2987 35.516 39.3363 35.5958 39.3856 35.6603ZM36.5858 36.9462C36.6656 37.0166 36.7482 37.0886 36.8323 37.1614C35.246 37.582 34.0654 37.6278 33.8083 37.6321C32.1656 36.63 31.3141 35.5696 30.9858 35.0922C32.3605 35.0577 33.4968 34.9333 34.4446 34.7619C34.4831 34.8092 34.5221 34.8562 34.5616 34.9028C33.7998 35.0214 33.0321 35.0976 32.2619 35.1309L31.9461 35.1442L32.1198 35.4099C32.1194 35.4103 32.0842 35.476 31.851 35.5214L31.4718 35.5954L33.336 37.1047L33.4229 37.0812C33.4248 37.0808 33.5892 37.0366 33.788 37.0366C34.0748 37.0366 34.2708 37.1238 34.3694 37.2944L34.432 37.4024L34.5537 37.3809C35.2353 37.2567 35.913 37.1117 36.5858 36.9462ZM31.0696 35.7961L30.6243 35.7719C30.6035 35.5496 30.5828 35.3273 30.5671 35.1051C30.6454 35.235 30.8058 35.4792 31.0696 35.7961ZM30.5186 34.3636C30.4929 33.8368 30.4774 33.3096 30.472 32.7823C30.5362 32.7847 30.5996 32.7905 30.6599 32.7991C31.3517 32.904 31.5325 33.6733 30.9925 34.1061C30.8516 34.2176 30.6892 34.2994 30.5186 34.3636ZM34.6034 37.0057C34.4281 36.7893 34.1491 36.6758 33.7883 36.6758C33.6377 36.6758 33.505 36.6961 33.4213 36.7126L32.2493 35.7629C32.3468 35.7069 32.4125 35.6361 32.4485 35.5492C32.4574 35.5276 32.4642 35.5052 32.4689 35.4823C33.3978 35.4314 34.1804 35.3387 34.8421 35.2252C35.163 35.5833 35.6345 36.0771 36.2598 36.6511C35.4917 36.8339 34.8511 36.9591 34.6034 37.0057ZM29.9367 32.7964C29.9442 33.3634 29.9583 33.932 29.9884 34.4986C29.9379 34.5064 29.8882 34.5162 29.8385 34.5213C29.6703 34.5404 29.5106 34.5263 29.3588 34.488C29.3396 33.9402 29.3271 33.3912 29.3063 32.843C29.5169 32.8332 29.7301 32.8124 29.9367 32.7964ZM29.2793 32.3014C29.2549 31.8714 29.2144 31.4425 29.158 31.0156C29.4174 30.9799 29.6812 30.9933 29.9356 31.0551C29.9328 31.4551 29.9321 31.8552 29.9336 32.2552C29.7618 32.2646 29.5987 32.281 29.455 32.294C29.3966 32.2985 29.338 32.301 29.2793 32.3014ZM28.7425 32.2329C28.7092 32.2239 28.6763 32.2169 28.6423 32.2055C28.4857 32.1525 28.344 32.063 28.2287 31.9445C27.8945 31.6327 28.3531 31.3267 28.6423 31.1815C28.6877 31.5297 28.719 31.8811 28.7425 32.2329ZM33.0613 39.85C31.3627 38.9821 30.4513 38.0176 30.0893 37.5707C30.3496 37.5511 30.5957 37.5277 30.8395 37.503L33.6248 39.3108L39.733 37.6329C36.583 39.5315 33.471 39.8207 33.0613 39.85ZM38.106 36.7627C38.0559 36.7126 37.996 36.6531 37.9252 36.5815C38.6202 36.371 39.2924 36.1268 39.7937 35.8583L40.0985 35.6944L39.7894 35.5371C39.7201 35.5015 39.6524 35.4361 39.6513 35.4115C39.652 35.4021 39.6794 35.352 39.798 35.2839L40.0242 35.154L39.823 34.9865C39.8168 34.9814 39.1895 34.4606 38.9692 34.1253L38.8964 34.0157L38.7716 34.0521C38.7704 34.0521 38.6632 34.083 38.5239 34.083C38.3087 34.0834 38.1475 34.013 38.0442 33.8744L37.9299 33.723L37.7867 33.8463C37.7793 33.8525 37.3359 34.216 36.1467 34.5596C36.1076 34.5032 36.0699 34.4458 36.0337 34.3874C37.4756 33.9503 38.2124 33.4213 38.5317 33.1317C39.0443 34.2407 40.2648 35.134 40.7947 35.4843C39.9435 35.9993 39.0428 36.4276 38.106 36.7627Z" fill="#0F9D58"/>
</svg>
